<svg width="29" height="28" viewBox="0 0 29 28" fill="none" xmlns="http://www.w3.org/2000/svg">
<path d="M22.7433 5.75178L20.27 3.27845C19.36 2.36845 17.8783 2.36845 16.9683 3.27845L13.6667 6.58011L16.14 9.05345L18.6133 6.58011L22.7433 10.7101C23.3989 10.0516 23.767 9.16017 23.767 8.23095C23.767 7.30172 23.3989 6.41032 22.7433 5.75178V5.75178ZM6.655 16.0651C7.34333 16.7534 8.45167 16.7534 9.12833 16.0651L12.01 13.1834L9.53667 10.6984L6.655 13.5801C5.96666 14.2684 5.96666 15.3768 6.655 16.0651Z" fill="#4CAF50"/>
<path d="M17.7967 9.05343L16.9683 9.88177L16.14 10.7101L12.43 7.0001C11.7417 6.3001 10.6333 6.3001 9.95667 6.98843C9.793 7.15012 9.66305 7.34269 9.57436 7.55497C9.48567 7.76726 9.44 7.99503 9.44 8.2251C9.44 8.45517 9.48567 8.68295 9.57436 8.89523C9.66305 9.10751 9.793 9.30008 9.95667 9.46177L13.6667 13.1718L12.8383 14.0001L5.41834 21.4201C4.50834 22.3301 4.50834 23.8118 5.41834 24.7218C6.32834 25.6318 7.81001 25.6318 8.72001 24.7218L19.4417 14.0001C19.5497 14.1081 19.6779 14.1938 19.819 14.2522C19.9602 14.3107 20.1114 14.3408 20.2642 14.3408C20.4169 14.3408 20.5682 14.3107 20.7093 14.2522C20.8504 14.1938 20.9787 14.1081 21.0867 14.0001C21.1947 13.8921 21.2804 13.7639 21.3388 13.6227C21.3973 13.4816 21.4274 13.3304 21.4274 13.1776C21.4274 13.0248 21.3973 12.8736 21.3388 12.7325C21.2804 12.5913 21.1947 12.4631 21.0867 12.3551L17.7967 9.05343Z" fill="#4CAF50"/>
</svg>
