<svg width="29" height="28" viewBox="0 0 29 28" fill="none" xmlns="http://www.w3.org/2000/svg">
<path d="M23.0917 9.33342C22.8881 8.98076 22.5957 8.68753 22.2437 8.48286C21.8917 8.27819 21.4922 8.16921 21.085 8.16675H18.25V5.83341C18.25 5.524 18.1271 5.22725 17.9083 5.00846C17.6895 4.78966 17.3928 4.66675 17.0833 4.66675H5.41667C4.79783 4.66675 4.20433 4.91258 3.76675 5.35017C3.32916 5.78775 3.08333 6.38124 3.08333 7.00008V18.6667C3.08375 19.0759 3.19177 19.4778 3.39654 19.8321C3.60131 20.1863 3.89564 20.4805 4.25 20.6851C4.20823 21.768 4.59837 22.8233 5.33461 23.6186C6.07085 24.4139 7.09286 24.8841 8.17583 24.9259C9.2588 24.9677 10.314 24.5775 11.1093 23.8413C11.9046 23.1051 12.3749 22.083 12.4167 21.0001H16.0333C16.1623 21.9762 16.6417 22.8722 17.3822 23.5213C18.1226 24.1703 19.0737 24.5281 20.0583 24.5281C21.043 24.5281 21.9941 24.1703 22.7345 23.5213C23.475 22.8722 23.9543 21.9762 24.0833 21.0001C24.7022 21.0001 25.2957 20.7542 25.7332 20.3167C26.1708 19.8791 26.4167 19.2856 26.4167 18.6667V15.1667C26.4148 14.9539 26.3586 14.7451 26.2533 14.5601L23.0917 9.33342ZM18.25 10.5001H21.085L23.185 14.0001H18.25V10.5001ZM8.33333 22.1667C7.98721 22.1667 7.64887 22.0641 7.36108 21.8718C7.0733 21.6795 6.849 21.4062 6.71654 21.0864C6.58409 20.7667 6.54943 20.4148 6.61696 20.0753C6.68448 19.7359 6.85115 19.4241 7.09589 19.1793C7.34064 18.9346 7.65246 18.7679 7.99192 18.7004C8.33139 18.6329 8.68326 18.6675 9.00303 18.8C9.3228 18.9324 9.59611 19.1567 9.7884 19.4445C9.9807 19.7323 10.0833 20.0706 10.0833 20.4167C10.0833 20.8809 9.89896 21.326 9.57077 21.6542C9.24258 21.9824 8.79746 22.1667 8.33333 22.1667ZM20 22.1667C19.6539 22.1667 19.3155 22.0641 19.0278 21.8718C18.74 21.6795 18.5157 21.4062 18.3832 21.0864C18.2508 20.7667 18.2161 20.4148 18.2836 20.0753C18.3511 19.7359 18.5178 19.4241 18.7626 19.1793C19.0073 18.9346 19.3191 18.7679 19.6586 18.7004C19.9981 18.6329 20.3499 18.6675 20.6697 18.8C20.9895 18.9324 21.2628 19.1567 21.4551 19.4445C21.6474 19.7323 21.75 20.0706 21.75 20.4167C21.75 20.8809 21.5656 21.326 21.2374 21.6542C20.9092 21.9824 20.4641 22.1667 20 22.1667Z" fill="#30AABD"/>
</svg>
