<svg width="29" height="28" viewBox="0 0 29 28" fill="none" xmlns="http://www.w3.org/2000/svg">
<path d="M25.5783 23.6716L23.9217 25.3283C23.7031 25.5455 23.4074 25.6675 23.0992 25.6675C22.791 25.6675 22.4953 25.5455 22.2767 25.3283L8.41667 11.4916C8.03728 11.6015 7.64494 11.6603 7.25 11.6666C6.50719 11.6661 5.77524 11.4882 5.11499 11.1478C4.45475 10.8075 3.8853 10.3144 3.45398 9.70965C3.02266 9.10489 2.74193 8.4059 2.63515 7.67081C2.52836 6.93571 2.59859 6.18574 2.84 5.48325L5.80334 8.44658L6.42167 7.82825L8.07834 6.17159L8.69667 5.55325L5.73334 2.58992C6.43583 2.3485 7.1858 2.27827 7.92089 2.38506C8.65599 2.49185 9.35498 2.77257 9.95974 3.20389C10.5645 3.63521 11.0576 4.20466 11.3979 4.86491C11.7383 5.52515 11.9161 6.25711 11.9167 6.99992C11.9104 7.39486 11.8516 7.7872 11.7417 8.16659L25.5783 22.0266C25.7956 22.2452 25.9176 22.5409 25.9176 22.8491C25.9176 23.1573 25.7956 23.453 25.5783 23.6716V23.6716ZM2.92167 22.0266C2.70438 22.2452 2.58241 22.5409 2.58241 22.8491C2.58241 23.1573 2.70438 23.453 2.92167 23.6716L4.57834 25.3283C4.79693 25.5455 5.09262 25.6675 5.40084 25.6675C5.70905 25.6675 6.00475 25.5455 6.22334 25.3283L12.605 18.9583L9.30334 15.6566L2.92167 22.0266ZM23.5833 2.33325L18.9167 4.66659V6.99992L16.385 9.53159L18.7183 11.8649L21.25 9.33325H23.5833L25.9167 4.66659L23.5833 2.33325Z" fill="#F6C675"/>
</svg>
