<svg width="24" height="24" viewBox="0 0 24 24" fill="none" xmlns="http://www.w3.org/2000/svg">
<path d="M12.2504 0.333252C18.6903 0.333428 23.9165 5.56035 23.9165 12.0002C23.9163 18.44 18.6902 23.6661 12.2504 23.6663C5.79888 23.6663 0.583626 18.4401 0.58345 12.0002C0.58345 5.56024 5.79878 0.333252 12.2504 0.333252ZM7.02388 10.6008C6.25388 10.6008 5.62349 11.2302 5.62349 12.0002C5.62367 12.7701 6.25399 13.3997 7.02388 13.3997C7.79357 13.3994 8.4114 12.77 8.41158 12.0002C8.41158 11.2304 7.79368 10.6011 7.02388 10.6008ZM12.2504 10.6008C11.4804 10.6008 10.8501 11.2302 10.8501 12.0002C10.8502 12.7701 11.4806 13.3997 12.2504 13.3997C13.0202 13.3995 13.638 12.77 13.6381 12.0002C13.6381 11.2304 13.0203 10.601 12.2504 10.6008ZM17.477 10.6008C16.6953 10.6008 16.0766 11.2302 16.0766 12.0002C16.0768 12.7701 16.6954 13.3997 17.477 13.3997C18.2468 13.3995 18.8655 12.77 18.8657 12.0002C18.8657 11.2303 18.2469 10.601 17.477 10.6008Z" fill="#120869"/>
</svg>
