<svg width="29" height="28" viewBox="0 0 29 28" fill="none" xmlns="http://www.w3.org/2000/svg">
<path d="M3.61 6.16006V25.0545C3.61 25.8777 4.30272 26.8801 5.1556 26.8801H23.7577C24.6083 26.8801 25.45 25.8777 25.45 25.0545V6.16006H3.61ZM14.5076 21.1546C11.226 21.1546 8.56544 18.582 8.56544 15.4073C8.56544 12.2327 11.226 9.66006 14.5076 9.66006C17.7892 9.66006 20.4498 12.2327 20.4498 15.4073C20.4498 18.5825 17.7892 21.1546 14.5076 21.1546V21.1546ZM23.7577 0.560059H5.1556C4.30272 0.560059 3.61 1.13854 3.61 1.96286V5.04006H25.45V1.96286C25.45 1.13854 24.6083 0.560059 23.7577 0.560059ZM10.89 3.92006H4.73V1.68006H10.89V3.92006ZM21.6118 3.76326C20.9123 3.76326 20.3473 3.21502 20.3473 2.53798C20.3473 1.86206 20.9123 1.31382 21.6118 1.31382C22.3112 1.31382 22.8779 1.86206 22.8779 2.53798C22.8774 3.21446 22.3112 3.76326 21.6118 3.76326V3.76326Z" fill="#4CAF50"/>
</svg>
