<svg width="29" height="28" viewBox="0 0 29 28" fill="none" xmlns="http://www.w3.org/2000/svg">
<path d="M21.75 4.66659V3.49992C21.75 2.85825 21.225 2.33325 20.5833 2.33325H6.58333C5.94167 2.33325 5.41667 2.85825 5.41667 3.49992V8.16659C5.41667 8.80825 5.94167 9.33325 6.58333 9.33325H20.5833C21.225 9.33325 21.75 8.80825 21.75 8.16659V6.99992H22.9167V11.6666H12.4167C11.775 11.6666 11.25 12.1916 11.25 12.8333V24.4999C11.25 25.1416 11.775 25.6666 12.4167 25.6666H14.75C15.3917 25.6666 15.9167 25.1416 15.9167 24.4999V13.9999H24.0833C24.725 13.9999 25.25 13.4749 25.25 12.8333V5.83325C25.25 5.19159 24.725 4.66659 24.0833 4.66659H21.75Z" fill="#30AABD"/>
</svg>
