<svg width="29" height="28" viewBox="0 0 29 28" fill="none" xmlns="http://www.w3.org/2000/svg">
<path d="M19.4167 12.8334H18.25V3.50008C18.25 2.21675 17.2 1.16675 15.9167 1.16675H13.5833C12.3 1.16675 11.25 2.21675 11.25 3.50008V12.8334H10.0833C6.86333 12.8334 4.25 15.4467 4.25 18.6667V26.8334H25.25V18.6667C25.25 15.4467 22.6367 12.8334 19.4167 12.8334ZM22.9167 24.5001H20.5833V21.0001C20.5833 20.3584 20.0583 19.8334 19.4167 19.8334C18.775 19.8334 18.25 20.3584 18.25 21.0001V24.5001H15.9167V21.0001C15.9167 20.3584 15.3917 19.8334 14.75 19.8334C14.1083 19.8334 13.5833 20.3584 13.5833 21.0001V24.5001H11.25V21.0001C11.25 20.3584 10.725 19.8334 10.0833 19.8334C9.44167 19.8334 8.91667 20.3584 8.91667 21.0001V24.5001H6.58333V18.6667C6.58333 16.7417 8.15833 15.1667 10.0833 15.1667H19.4167C21.3417 15.1667 22.9167 16.7417 22.9167 18.6667V24.5001Z" fill="#120869"/>
</svg>
