<svg width="28" height="26" viewBox="0 0 28 26" fill="none" xmlns="http://www.w3.org/2000/svg">
<path d="M3.23617 7.36258C3.08013 7.03577 3.02932 6.6686 3.09076 6.3117C3.15219 5.9548 3.32284 5.62574 3.57917 5.36992L5.22883 3.72025C5.4847 3.46436 5.81361 3.29408 6.17026 3.23287C6.52692 3.17165 6.89378 3.2225 7.22033 3.37842L8.94117 1.65758C9.37873 1.22015 9.97212 0.974414 10.5908 0.974414C11.2096 0.974414 11.8029 1.22015 12.2405 1.65758L15.541 4.95808C15.9784 5.39565 16.2242 5.98903 16.2242 6.60775C16.2242 7.22646 15.9784 7.81985 15.541 8.25742L13.8902 9.90708L13.8318 9.84875L9.70767 13.9741L9.766 14.0324L8.11633 15.6821C7.89965 15.8989 7.64238 16.0708 7.35923 16.1881C7.07607 16.3054 6.77258 16.3658 6.46608 16.3658C6.15959 16.3658 5.85609 16.3054 5.57294 16.1881C5.28978 16.0708 5.03252 15.8989 4.81583 15.6821L1.5165 12.3827C1.29973 12.1661 1.12777 11.9088 1.01045 11.6256C0.893133 11.3425 0.832748 11.039 0.832748 10.7325C0.832748 10.426 0.893133 10.1225 1.01045 9.83935C1.12777 9.5562 1.29973 9.29893 1.5165 9.08225L3.235 7.36258H3.23617ZM11.3562 15.6226L15.4815 11.4984L19.6652 15.6821L15.541 19.8074L11.3573 15.6237L11.3562 15.6226ZM17.1895 21.4559L21.3148 17.3317L23.3775 19.3944C23.9206 19.9421 24.2246 20.6827 24.223 21.454C24.2215 22.2254 23.9144 22.9647 23.3691 23.5102C22.8237 24.0557 22.0845 24.3629 21.3132 24.3647C20.5418 24.3665 19.8012 24.0627 19.2533 23.5197L17.1907 21.4571L17.1895 21.4559ZM20.4912 3.30725L25.4402 8.25742L20.9613 12.7362C20.2462 13.4514 18.9267 13.2939 18.0155 12.3827L16.3658 10.7319C15.4547 9.82192 15.296 8.50242 16.0123 7.78608L20.49 3.30725H20.4912ZM22.1397 1.65758L22.4932 1.30408C23.2083 0.587749 24.5278 0.746416 25.439 1.65758L27.0887 3.30725C27.9998 4.21842 28.1585 5.53792 27.4422 6.25425L27.0887 6.60775L22.1408 1.65758H22.1397ZM7.2915 19.8074L9.76483 17.3317C9.87315 17.2234 10.0018 17.1374 10.1433 17.0787C10.2849 17.02 10.4366 16.9897 10.5898 16.9897C10.7431 16.9896 10.8948 17.0198 11.0364 17.0783C11.178 17.1369 11.3067 17.2228 11.4151 17.3312C11.5235 17.4395 11.6095 17.5681 11.6682 17.7096C11.7269 17.8512 11.7571 18.0029 11.7572 18.1562C11.7572 18.3094 11.7271 18.4612 11.6685 18.6028C11.6099 18.7444 11.524 18.873 11.4157 18.9814L8.94117 21.4582C9.15988 21.677 9.28275 21.9737 9.28275 22.2831C9.28275 22.5924 9.15988 22.8891 8.94117 23.1079L7.2915 24.7576C7.18315 24.8661 7.05448 24.9521 6.91285 25.0108C6.77122 25.0695 6.6194 25.0998 6.46608 25.0998C6.31277 25.0998 6.16095 25.0695 6.01932 25.0108C5.87769 24.9521 5.74902 24.8661 5.64067 24.7576L3.991 23.1079C3.77228 22.8891 3.64942 22.5924 3.64942 22.2831C3.64942 21.9737 3.77228 21.677 3.991 21.4582L5.64067 19.8086C5.74902 19.7001 5.87769 19.6141 6.01932 19.5553C6.16095 19.4966 6.31277 19.4664 6.46608 19.4664C6.6194 19.4664 6.77122 19.4966 6.91285 19.5553C7.05448 19.6141 7.18315 19.7001 7.2915 19.8086V19.8074Z" fill="#D63031"/>
</svg>
